Coordinates
version=1
nRows=24
nColumns=24
inDegrees=yes

Units are S.I. units (second, meters, Newtons, ...)
Angles are in degrees.

endheader
time	pelvis_tilt	pelvis_list	pelvis_rotation	pelvis_tx	pelvis_ty	pelvis_tz	hip_flexion_r	hip_adduction_r	hip_rotation_r	knee_angle_r	ankle_angle_r	subtalar_angle_r	mtp_angle_r	hip_flexion_l	hip_adduction_l	hip_rotation_l	knee_angle_l	ankle_angle_l	subtalar_angle_l	mtp_angle_l	lumbar_extension	lumbar_bending	lumbar_rotation
      1.25000000	      0.10662425	     -7.43099028	     -4.14699781	      0.00582932	      1.05489748	      0.30943654	    -19.83962820	     11.90072823	      1.19471213	     -4.58257984	     -0.52331557	     -8.58588128	      4.39551457	     22.14000484	     -4.35419274	     -9.29273523	      5.73581072	     11.25271180	      5.37299911	     -2.77963784	      2.27651035	     12.14336844	      4.69225938
      1.25416667	      0.08838485	     -7.41511075	     -4.19633818	      0.01198103	      1.05463814	      0.30950380	    -19.91067791	     11.83213918	      1.21288660	     -5.05281897	     -0.66975961	     -8.60949903	      4.40778966	     22.03730134	     -4.33441382	     -9.17656383	      5.58487995	     11.33028019	      5.42052936	     -2.76672981	      2.33990988	     12.08430693	      4.69792223
      1.25833333	      0.07825269	     -7.38948140	     -4.24551730	      0.01819982	      1.05442089	      0.30958608	    -19.97844141	     11.75242084	      1.22367141	     -5.54176927	     -0.88416878	     -8.62604434	      4.42271266	     21.91588365	     -4.30820318	     -9.04087121	      5.40650480	     11.43547626	      5.43959040	     -2.75105540	      2.41094409	     12.00312238	      4.70690605
      1.26250000	      0.06200927	     -7.29425439	     -4.23542472	      0.02470294	      1.05419665	      0.30958945	    -20.04649049	     11.61359464	      1.15623984	     -5.97398697	     -1.52691187	     -8.64673132	      4.47989712	     21.77639706	     -4.18570102	     -8.82617676	      5.21980713	     11.72345035	      5.31445508	     -2.69882268	      2.46417902	     11.83690458	      4.71364492
      1.26666667	      0.10533220	     -7.25488209	     -4.20008221	      0.03099849	      1.05405130	      0.30955198	    -20.13860455	     11.53720938	      1.05008694	     -6.48438137	     -1.97834757	     -8.73555460	      4.58843681	     21.59479159	     -4.11683117	     -8.55886226	      5.00247800	     11.70778824	      5.03065358	     -2.62219449	      2.51306919	     11.71826619	      4.68711826
      1.27083333	      0.10759211	     -7.22497301	     -4.25923782	      0.03729295	      1.05394459	      0.30964980	    -20.16716314	     11.44228820	      1.06396713	     -7.07222324	     -2.08456984	     -8.74814667	      4.60410376	     21.43807776	     -4.09903291	     -8.41571483	      4.77177373	     11.68046366	      5.01311815	     -2.61114469	      2.57167476	     11.65844590	      4.68907880
      1.27500000	      0.10632972	     -7.09872095	     -4.31717599	      0.04392879	      1.05389063	      0.30961846	    -20.17873843	     11.22904453	      0.88536040	     -7.64512746	     -2.74239675	     -8.65576143	      4.69314427	     21.21768759	     -3.96216668	     -8.16338156	      4.63133620	     11.55244678	      4.58670536	     -2.55413506	      2.56783937	     11.46775362	      4.67840309
      1.27916667	      0.22257110	     -7.02885761	     -4.23102042	      0.05033255	      1.05391676	      0.30943377	    -20.28900211	     11.11550181	      0.65202721	     -8.23633513	     -3.27444770	     -8.56570351	      4.89132859	     20.91886182	     -3.83839646	     -7.71782292	      4.44563449	     11.18712018	      3.74986068	     -2.43993845	      2.61799255	     11.28231936	      4.64124824
      1.28333333	      0.22888561	     -6.99211763	     -4.30400290	      0.05669197	      1.05392624	      0.30951099	    -20.25913566	     10.99763929	      0.64587769	     -8.93447659	     -3.38253623	     -8.57092612	      4.91430053	     20.72516149	     -3.81988601	     -7.55931121	      4.22835856	     11.12910844	      3.71915335	     -2.42614259	      2.66259737	     11.22135391	      4.63814325
      1.28750000	      0.36283465	     -6.86084579	     -4.22503914	      0.06325245	      1.05408208	      0.30911671	    -20.33740164	     10.78397931	      0.27141249	     -9.60076085	     -3.96039138	     -8.29610791	      5.40392154	     20.32353348	     -3.61758638	     -6.78262307	      4.17445718	     10.44563894	      2.16488177	     -2.16015611	      2.54097610	     10.99361283	      4.50873286
      1.29166667	      0.38076685	     -6.81487241	     -4.29341157	      0.06962858	      1.05418407	      0.30916559	    -20.27107915	     10.65022533	      0.22259832	    -10.37079863	     -4.15190443	     -8.28310712	      5.42805298	     20.11377964	     -3.58653123	     -6.69000583	      3.95091768	     10.35977432	      2.16921312	     -2.14674323	      2.61814022	     10.91571387	      4.51333617
      1.29583333	      0.34310567	     -6.60306440	     -4.36298713	      0.07659772	      1.05429424	      0.30903095	    -20.13850018	     10.31770537	     -0.12384681	    -11.09907350	     -5.04379646	     -8.03416323	      5.54325079	     19.89969541	     -3.34977096	     -6.71342713	      3.82358218	      9.82780081	      1.85320338	     -2.09221290	      2.67406458	     10.67748183	      4.52073078
      1.30000000	      0.41981486	     -6.48420854	     -4.34900749	      0.08317851	      1.05452613	      0.30890032	    -20.10119060	     10.11009670	     -0.35745052	    -11.86135070	     -5.73982958	     -7.80265772	      5.73366119	     19.60039100	     -3.20176564	     -6.49376474	      3.66632469	      9.20950197	      1.28369636	     -2.00155197	      2.79617876	     10.41796157	      4.52350302
      1.30416667	      0.40976644	     -6.32029418	     -4.44180611	      0.08988716	      1.05474933	      0.30878820	    -19.94096585	      9.81108536	     -0.56966011	    -12.71362639	     -6.16006960	     -7.70670623	      5.84860362	     19.34633078	     -3.03221645	     -6.31056600	      3.55875748	      8.85420260	      0.97242049	     -1.94660712	      2.74471750	     10.28868635	      4.49877922
      1.30833333	      0.59015493	     -6.20145379	     -4.34748759	      0.09631845	      1.05514981	      0.30834320	    -19.95507885	      9.58935291	     -0.92120115	    -13.54766643	     -6.80362795	     -7.39430505	      6.53894521	     18.90038984	     -2.84212296	     -5.54987484	      3.50427274	      7.87038086	     -0.78337961	     -1.61136491	      2.71012488	     10.01352923	      4.37570874
      1.31250000	      0.59321737	     -6.04137962	     -4.38354156	      0.10300838	      1.05543501	      0.30820853	    -19.76804125	      9.30882151	     -1.19120064	    -14.42705524	     -7.52472514	     -7.17268517	      6.71773742	     18.68467181	     -2.66047577	     -5.58364773	      3.31503090	      7.40326894	     -0.89090242	     -1.52830239	      2.82464178	      9.80489850	      4.38202757
      1.31666667	      0.65167943	     -5.84992840	     -4.44288560	      0.10972379	      1.05586112	      0.30810533	    -19.63339767	      8.97444689	     -1.37566886	    -15.30439572	     -8.30650736	     -6.93990565	      7.10227739	     18.35318026	     -2.45557804	     -5.34095793	      3.23037300	      6.69607726	     -1.42392982	     -1.35008052	      2.94278641	      9.55566930	      4.35633864
      1.32083333	      0.68027907	     -5.70213169	     -4.42933534	      0.11622202	      1.05621759	      0.30772241	    -19.41414512	      8.69312489	     -1.70276751	    -16.25708592	     -8.98981151	     -6.76918735	      8.01567926	     18.09028819	     -2.26108417	     -4.89115135	      3.10707444	      5.88742424	     -2.64301937	     -0.92253598	      2.86455492	      9.29485898	      4.25429361
      1.32500000	      0.70348970	     -5.50247263	     -4.44457286	      0.12291069	      1.05663030	      0.30752588	    -19.19005909	      8.35513872	     -2.02004203	    -17.20021745	     -9.78593273	     -6.50420656	      8.20046247	     17.86860550	     -2.02605759	     -4.97852773	      2.88996420	      5.44016943	     -2.69155366	     -0.84215714	      2.96683857	      9.06562225	      4.27581810
      1.32916667	      0.73396579	     -5.30529486	     -4.48684013	      0.12954833	      1.05710262	      0.30737243	    -18.95814518	      8.00613940	     -2.25296251	    -18.15574985	    -10.67030959	     -6.24625051	      8.40775059	     17.62047438	     -1.80707134	     -4.95250816	      2.70698458	      4.86080632	     -2.93291443	     -0.75597485	      3.02340866	      8.77412152	      4.28683332
      1.33333333	      0.80130295	     -5.06777619	     -4.41647547	      0.13621116	      1.05758394	      0.30677265	    -18.74444543	      7.60813260	     -2.69518059	    -19.12386535	    -11.47263236	     -6.02512039	      9.96585416	     17.28876368	     -1.48588283	     -4.30019870	      2.63330956	      4.00513443	     -4.40874565	     -0.06868744	      3.12792292	      8.57497321	      4.14572545
      1.33750000	      0.79244014	     -4.89079741	     -4.48951173	      0.14266985	      1.05807898	      0.30671829	    -18.42928879	      7.27433508	     -2.80415209	    -20.11749551	    -12.43556716	     -5.74963676	     10.16738530	     17.11527113	     -1.30833300	     -4.40790734	      2.38468203	      3.47950967	     -4.40920211	      0.01026705	      3.10682723	      8.22144521	      4.16234645
      1.34166667	      0.80968487	     -4.65795735	     -4.51850587	      0.14927427	      1.05861170	      0.30649746	    -18.13509500	      6.87360045	     -3.04684649	    -21.10666621	    -13.42302066	     -5.51994889	     10.37114527	     16.89869452	     -1.04372869	     -4.43532430	      2.16841265	      2.96648835	     -4.60206895	      0.08857182	      3.18478308	      7.93193373	      4.18119437
      1.34583333	      0.81900508	     -4.42733307	     -4.53717198	      0.15582709	      1.05915017	      0.30624079	    -17.81828091	      6.47249038	     -3.26938208	    -22.09687656	    -14.47243903	     -5.28733762	     10.59087996	     16.68870922	     -0.78017314	     -4.37683281	      1.95677481	      2.42141295	     -4.91807304	      0.17094890	      3.25006327	      7.62215177	      4.18940382
